<?xml version="1.0" encoding="UTF-8"?>
<svg version="1.1" xmlns="http://www.w3.org/2000/svg" width="100" height="100">
<path d="M0 0 C52.10021317 -2.6313239 52.10021317 -2.6313239 62.81445312 5.83789062 C70.96184491 14.3250293 73.38821634 22.58357666 73.25 34.25 C73.00107016 38.19943099 72.59986784 42.08886171 72 46 C70.68 46 69.36 46 68 46 C68 38.74 68 31.48 68 24 C61.4 24 54.8 24 48 24 C48 17.4 48 10.8 48 4 C33.48 4 18.96 4 4 4 C4 31.72 4 59.44 4 88 C17.2 88 30.4 88 44 88 C44.66 89.32 45.32 90.64 46 92 C30.82 92 15.64 92 0 92 C0 61.64 0 31.28 0 0 Z M52 8 C52 11.96 52 15.92 52 20 C55.96 20 59.92 20 64 20 C60.26704728 15.46712884 56.61513452 11.62617712 52 8 Z " fill="#000000" transform="translate(14,4)"/>
<path d="M0 0 C2.64 0 5.28 0 8 0 C8 1.32 8 2.64 8 4 C7.34 4 6.68 4 6 4 C6 4.66 6 5.32 6 6 C7.010625 6.061875 8.02125 6.12375 9.0625 6.1875 C15.03981136 7.0707869 18.67411332 10.40213657 22.4375 14.9375 C25.23368808 20.51766572 24.8924635 26.97757458 24 33 C21.93233263 38.17282154 18.38798409 42.94379649 13.2421875 45.40234375 C7.01483557 47.06224766 0.26474825 47.30497705 -5.765625 44.89453125 C-10.45358817 41.99948115 -14.54167967 38.47108413 -16 33 C-16.93218952 26.15294421 -17.1586445 19.90066027 -13.4375 13.875 C-10.39857969 10.02617876 -7.51818953 7.88942471 -3 6 C-0.0625 5.75 -0.0625 5.75 2 6 C2 5.34 2 4.68 2 4 C1.34 4 0.68 4 0 4 C0 2.68 0 1.36 0 0 Z M-9.375 17.625 C-11.57907893 22.20270239 -11.7971639 26.00552411 -11 31 C-8.67031069 35.83858548 -5.83858548 38.67031069 -1 41 C3.99447589 41.7971639 7.79729761 41.57907893 12.375 39.375 C15.95907713 36.13226355 18.59535241 33.53524104 19.3828125 28.6015625 C19.63883919 22.91777006 18.93626932 19.35061345 15 15 C10.64938655 11.06373068 7.08222994 10.36116081 1.3984375 10.6171875 C-3.53524104 11.40464759 -6.13226355 14.04092287 -9.375 17.625 Z " fill="#000000" transform="translate(74,54)"/>
<path d="M0 0 C3.96 0 7.92 0 12 0 C12 3.96 12 7.92 12 12 C8.04 12 4.08 12 0 12 C0 8.04 0 4.08 0 0 Z M4 4 C4 5.32 4 6.64 4 8 C5.32 8 6.64 8 8 8 C8 6.68 8 5.36 8 4 C6.68 4 5.36 4 4 4 Z " fill="#000000" transform="translate(28,68)"/>
<path d="M0 0 C3.96 0 7.92 0 12 0 C12 3.96 12 7.92 12 12 C8.04 12 4.08 12 0 12 C0 8.04 0 4.08 0 0 Z M4 4 C4 5.32 4 6.64 4 8 C5.32 8 6.64 8 8 8 C8 6.68 8 5.36 8 4 C6.68 4 5.36 4 4 4 Z " fill="#000000" transform="translate(28,52)"/>
<path d="M0 0 C3.96 0 7.92 0 12 0 C12 3.96 12 7.92 12 12 C8.04 12 4.08 12 0 12 C0 8.04 0 4.08 0 0 Z M4 4 C4 5.32 4 6.64 4 8 C5.32 8 6.64 8 8 8 C8 6.68 8 5.36 8 4 C6.68 4 5.36 4 4 4 Z " fill="#000000" transform="translate(28,36)"/>
<path d="M0 0 C9.24 0 18.48 0 28 0 C28 1.32 28 2.64 28 4 C18.76 4 9.52 4 0 4 C0 2.68 0 1.36 0 0 Z " fill="#000000" transform="translate(44,40)"/>
<path d="M0 0 C1.32 0 2.64 0 4 0 C5.2213112 12.38273859 5.2213112 12.38273859 2.2890625 16.265625 C-2.73240291 20 -2.73240291 20 -6 20 C-6.66 18.68 -7.32 17.36 -8 16 C-2.25 11 -2.25 11 0 11 C0 7.37 0 3.74 0 0 Z " fill="#000000" transform="translate(76,68)"/>
<path d="M0 0 C8.58 0 17.16 0 26 0 C25 3 25 3 23 4 C21.2595583 4.08449628 19.51590278 4.10723024 17.7734375 4.09765625 C16.7421875 4.09443359 15.7109375 4.09121094 14.6484375 4.08789062 C13.02808594 4.07532227 13.02808594 4.07532227 11.375 4.0625 C9.74304688 4.05573242 9.74304688 4.05573242 8.078125 4.04882812 C5.38536211 4.03701776 2.69270812 4.02054778 0 4 C0 2.68 0 1.36 0 0 Z " fill="#000000" transform="translate(44,56)"/>
<path d="M0 0 C3.96 0 7.92 0 12 0 C11.67 1.32 11.34 2.64 11 4 C7.37 4 3.74 4 0 4 C0 2.68 0 1.36 0 0 Z " fill="#000000" transform="translate(44,72)"/>
<path d="M0 0 C2.31 1.98 4.62 3.96 7 6 C5.68 7.32 4.36 8.64 3 10 C1.02 7.69 -0.96 5.38 -3 3 C-2.01 2.01 -1.02 1.02 0 0 Z " fill="#000000" transform="translate(93,58)"/>
</svg>
